<svg width="792" height="493" viewBox="0 0 792 493" fill="none" xmlns="http://www.w3.org/2000/svg">
<path opacity="0.25" d="M785.602 86.1834C786.688 85.9819 787.732 86.699 787.933 87.7851L791.216 105.483C791.418 106.569 790.701 107.613 789.615 107.814C788.528 108.016 787.485 107.299 787.283 106.213L784.365 90.4811L768.633 93.3993C767.547 93.6007 766.504 92.8836 766.302 91.7976C766.101 90.7115 766.818 89.6678 767.904 89.4663L785.602 86.1834ZM505.98 301.555L506.478 303.492L505.98 301.555ZM47.2384 225.981L45.4368 226.849L47.2384 225.981ZM201.043 3.12414L200.861 1.13245L201.043 3.12414ZM375.106 126.134L373.111 126.278L375.106 126.134ZM1.37903 484.874C0.374715 484.414 -0.0665977 483.228 0.393243 482.223L7.88692 465.857C8.34677 464.853 9.53373 464.412 10.538 464.871C11.5423 465.331 11.9837 466.518 11.5238 467.523L4.86272 482.07L19.4102 488.731C20.4145 489.191 20.8559 490.378 20.3961 491.382C19.9362 492.386 18.7493 492.828 17.745 492.368L1.37903 484.874ZM785.967 88.1498C787.615 89.2824 787.615 89.2824 787.615 89.2825C787.615 89.2825 787.615 89.2826 787.615 89.2826C787.615 89.2827 787.615 89.2828 787.615 89.2829C787.615 89.2831 787.615 89.2834 787.614 89.2838C787.614 89.2845 787.613 89.2855 787.612 89.2868C787.61 89.2894 787.608 89.293 787.605 89.2978C787.598 89.3073 787.589 89.3211 787.576 89.3393C787.551 89.3756 787.514 89.4293 787.465 89.4998C787.367 89.641 787.221 89.8501 787.028 90.1245C786.642 90.6734 786.067 91.4838 785.309 92.5357L782.064 90.1966C782.813 89.1577 783.378 88.3599 783.756 87.8233C783.945 87.5551 784.086 87.3521 784.18 87.2169C784.227 87.1493 784.262 87.0987 784.285 87.0653C784.297 87.0486 784.305 87.0363 784.311 87.0282C784.314 87.0242 784.316 87.0213 784.317 87.0195C784.317 87.0186 784.318 87.0179 784.318 87.0176C784.318 87.0174 784.318 87.0173 784.318 87.0172C784.318 87.0172 784.318 87.0172 784.318 87.0172C784.318 87.0172 784.318 87.0172 784.318 87.0172C784.318 87.0173 784.318 87.0173 785.967 88.1498ZM780.443 99.1386C778.982 101.083 777.306 103.285 775.421 105.718L772.259 103.268C774.132 100.852 775.796 98.6653 777.244 96.7364L780.443 99.1386ZM770.402 112.106C768.798 114.121 767.088 116.244 765.274 118.466L762.175 115.937C763.979 113.728 765.679 111.617 767.273 109.615L770.402 112.106ZM760.058 124.778C758.364 126.805 756.596 128.896 754.758 131.044L751.719 128.443C753.547 126.307 755.305 124.228 756.99 122.213L760.058 124.778ZM749.419 137.212C747.676 139.203 745.878 141.235 744.027 143.303L741.047 140.635C742.888 138.578 744.676 136.557 746.409 134.577L749.419 137.212ZM738.544 149.36C736.729 151.342 734.87 153.352 732.966 155.386L730.045 152.653C731.939 150.63 733.789 148.631 735.593 146.659L738.544 149.36ZM727.355 161.313C725.503 163.248 723.614 165.2 721.687 167.169L718.829 164.37C720.745 162.413 722.624 160.471 724.466 158.547L727.355 161.313ZM715.914 172.999C714.01 174.899 712.074 176.811 710.104 178.732L707.311 175.869C709.269 173.959 711.195 172.057 713.088 170.168L715.914 172.999ZM704.23 184.396C702.265 186.268 700.271 188.146 698.247 190.029L695.523 187.1C697.534 185.229 699.517 183.361 701.47 181.5L704.23 184.396ZM692.257 195.534C690.251 197.354 688.219 199.177 686.16 200.999L683.509 198.004C685.555 196.193 687.575 194.382 689.568 192.572L692.257 195.534ZM680.003 206.381C677.955 208.148 675.882 209.913 673.786 211.675L671.213 208.613C673.296 206.862 675.355 205.108 677.39 203.352L680.003 206.381ZM667.47 216.911C665.378 218.622 663.263 220.328 661.126 222.027L658.636 218.897C660.759 217.209 662.86 215.514 664.938 213.814L667.47 216.911ZM654.672 227.085C652.528 228.742 650.363 230.39 648.177 232.028L645.778 228.827C647.948 227.201 650.098 225.564 652.227 223.92L654.672 227.085ZM641.589 236.891C639.392 238.488 637.174 240.073 634.938 241.647L632.637 238.375C634.856 236.814 637.057 235.24 639.238 233.655L641.589 236.891ZM628.209 246.302C625.959 247.832 623.69 249.349 621.404 250.851L619.208 247.507C621.476 246.017 623.727 244.513 625.96 242.994L628.209 246.302ZM614.53 255.283C612.228 256.74 609.908 258.181 607.571 259.604L605.49 256.188C607.807 254.777 610.107 253.348 612.391 251.903L614.53 255.283ZM600.548 263.796C598.194 265.173 595.823 266.531 593.436 267.868L591.481 264.379C593.846 263.053 596.196 261.707 598.529 260.343L600.548 263.796ZM586.263 271.799C583.858 273.087 581.437 274.354 579 275.599L577.181 272.036C579.594 270.804 581.992 269.549 584.375 268.273L586.263 271.799ZM571.676 279.246C569.221 280.438 566.75 281.606 564.265 282.749L562.594 279.114C565.054 277.984 567.499 276.828 569.929 275.648L571.676 279.246ZM556.79 286.089C554.285 287.176 551.767 288.236 549.234 289.268L547.724 285.564C550.229 284.543 552.72 283.495 555.198 282.42L556.79 286.089ZM541.613 292.274C539.062 293.246 536.497 294.189 533.918 295.102L532.583 291.332C535.131 290.43 537.666 289.497 540.189 288.536L541.613 292.274ZM526.159 297.744C523.564 298.593 520.955 299.41 518.334 300.194L517.187 296.362C519.776 295.588 522.352 294.781 524.917 293.942L526.159 297.744ZM510.448 302.444C509.128 302.802 507.805 303.151 506.478 303.492L505.482 299.618C506.791 299.282 508.098 298.937 509.401 298.583L510.448 302.444ZM506.478 303.492C505.194 303.822 503.909 304.149 502.622 304.473L501.646 300.594C502.926 300.272 504.205 299.947 505.482 299.618L506.478 303.492ZM494.887 306.377C492.305 306.999 489.718 307.608 487.127 308.204L486.231 304.306C488.808 303.713 491.382 303.107 493.951 302.488L494.887 306.377ZM479.357 309.951C476.763 310.521 474.165 311.077 471.565 311.622L470.746 307.706C473.334 307.165 475.918 306.611 478.499 306.044L479.357 309.951ZM463.759 313.214C461.154 313.732 458.547 314.237 455.937 314.73L455.196 310.799C457.792 310.309 460.387 309.806 462.978 309.291L463.759 313.214ZM448.1 316.169C445.485 316.635 442.868 317.089 440.25 317.531L439.586 313.586C442.191 313.147 444.795 312.695 447.397 312.231L448.1 316.169ZM432.389 318.816C429.763 319.232 427.137 319.635 424.511 320.025L423.923 316.068C426.537 315.68 429.15 315.279 431.763 314.865L432.389 318.816ZM416.631 321.156C413.996 321.521 411.361 321.873 408.726 322.212L408.216 318.244C410.837 317.907 413.46 317.557 416.082 317.194L416.631 321.156ZM400.824 323.189C398.182 323.502 395.542 323.802 392.904 324.089L392.472 320.112C395.097 319.827 397.724 319.528 400.352 319.217L400.824 323.189ZM384.979 324.911C382.334 325.172 379.69 325.419 377.05 325.653L376.697 321.669C379.324 321.436 381.954 321.19 384.586 320.93L384.979 324.911ZM369.103 326.317C366.456 326.525 363.812 326.719 361.172 326.899L360.899 322.909C363.526 322.729 366.156 322.536 368.79 322.329L369.103 326.317ZM353.202 327.403C350.55 327.557 347.902 327.696 345.258 327.822L345.068 323.827C347.698 323.702 350.332 323.563 352.97 323.41L353.202 327.403ZM337.284 328.16C334.625 328.258 331.972 328.342 329.325 328.412L329.22 324.414C331.853 324.344 334.491 324.261 337.136 324.163L337.284 328.16ZM321.354 328.579C318.69 328.62 316.033 328.647 313.383 328.659L313.365 324.659C316 324.647 318.643 324.621 321.292 324.58L321.354 328.579ZM305.421 328.649C302.752 328.631 300.091 328.598 297.439 328.549L297.512 324.55C300.149 324.598 302.794 324.631 305.448 324.649L305.421 328.649ZM289.491 328.357C286.818 328.276 284.154 328.18 281.501 328.068L281.669 324.072C284.306 324.183 286.954 324.279 289.611 324.359L289.491 328.357ZM273.571 327.685C270.895 327.539 268.231 327.377 265.578 327.198L265.847 323.207C268.482 323.385 271.13 323.546 273.789 323.691L273.571 327.685ZM257.655 326.613C254.984 326.398 252.326 326.166 249.681 325.917L250.056 321.935C252.682 322.182 255.322 322.412 257.975 322.626L257.655 326.613ZM241.771 325.118C239.106 324.83 236.457 324.524 233.822 324.2L234.31 320.23C236.925 320.551 239.556 320.855 242.201 321.141L241.771 325.118ZM225.934 323.172C223.278 322.805 220.638 322.42 218.016 322.016L218.625 318.063C221.226 318.463 223.845 318.846 226.481 319.209L225.934 323.172ZM210.162 320.742C207.516 320.291 204.889 319.82 202.282 319.33L203.021 315.399C205.606 315.885 208.211 316.352 210.835 316.799L210.162 320.742ZM194.477 317.791C191.844 317.247 189.232 316.683 186.643 316.098L187.525 312.196C190.089 312.776 192.676 313.335 195.286 313.874L194.477 317.791ZM178.908 314.272C176.291 313.627 173.699 312.96 171.132 312.27L172.17 308.407C174.709 309.089 177.274 309.749 179.865 310.388L178.908 314.272ZM163.481 310.128C160.89 309.371 158.326 308.591 155.791 307.788L157.001 303.975C159.505 304.769 162.039 305.54 164.602 306.288L163.481 310.128ZM148.223 305.287C145.675 304.41 143.16 303.507 140.677 302.58L142.077 298.833C144.526 299.748 147.009 300.639 149.525 301.504L148.223 305.287ZM133.22 299.676C130.731 298.667 128.278 297.63 125.864 296.566L127.476 292.906C129.854 293.953 132.27 294.975 134.723 295.97L133.22 299.676ZM118.558 293.209C116.137 292.048 113.757 290.858 111.421 289.638L113.273 286.092C115.567 287.29 117.906 288.46 120.287 289.602L118.558 293.209ZM104.358 285.784C102.01 284.445 99.711 283.074 97.4622 281.67L99.5808 278.277C101.783 279.652 104.037 280.996 106.34 282.31L104.358 285.784ZM90.7765 277.296C88.5334 275.757 86.3472 274.183 84.2198 272.573L86.6341 269.384C88.7101 270.955 90.8456 272.493 93.0386 273.997L90.7765 277.296ZM77.9282 267.559C75.8613 265.824 73.8589 264.05 71.923 262.237L74.6572 259.317C76.5388 261.079 78.487 262.805 80.5 264.495L77.9282 267.559ZM66.183 256.54C64.3167 254.575 62.5244 252.567 60.8088 250.516L63.8766 247.949C65.5372 249.934 67.2736 251.88 69.0838 253.786L66.183 256.54ZM55.84 244.163C54.2451 241.977 52.7332 239.745 51.3068 237.469L54.6961 235.345C56.0718 237.54 57.5311 239.694 59.0718 241.806L55.84 244.163ZM47.2612 230.46C46.6306 229.268 46.0223 228.064 45.4368 226.849L49.0401 225.112C49.6037 226.282 50.1895 227.441 50.797 228.589L47.2612 230.46ZM45.4368 226.849C44.8476 225.627 44.2758 224.394 43.7215 223.153L47.3741 221.522C47.9126 222.729 48.468 223.925 49.0401 225.112L45.4368 226.849ZM40.6134 215.61C39.6524 213.073 38.7613 210.503 37.941 207.904L41.7556 206.7C42.5534 209.228 43.4198 211.727 44.3539 214.193L40.6134 215.61ZM35.7036 200.062C35.0318 197.436 34.4302 194.784 33.8997 192.112L37.8232 191.333C38.3396 193.935 38.9252 196.515 39.5789 199.071L35.7036 200.062ZM32.5283 184.076C32.1439 181.393 31.8302 178.693 31.5878 175.98L35.5719 175.624C35.808 178.267 36.1136 180.896 36.4879 183.509L32.5283 184.076ZM31.0773 167.847C30.9789 165.139 30.9514 162.422 30.9955 159.701L34.995 159.765C34.952 162.417 34.9788 165.064 35.0747 167.701L31.0773 167.847ZM31.3412 151.561C31.5271 148.858 31.7843 146.154 32.1134 143.451L36.084 143.935C35.7634 146.568 35.513 149.203 35.3318 151.836L31.3412 151.561ZM33.3106 135.392C33.7792 132.724 34.3192 130.061 34.9313 127.407L38.829 128.306C38.2327 130.891 37.7068 133.485 37.2503 136.084L33.3106 135.392ZM36.9731 119.518C37.7212 116.914 38.5408 114.323 39.4326 111.747L43.2124 113.056C42.3441 115.564 41.546 118.087 40.8174 120.623L36.9731 119.518ZM42.3056 104.117C43.3279 101.609 44.4213 99.1191 45.5865 96.6507L49.2037 98.3583C48.0694 100.761 47.005 103.185 46.0097 105.627L42.3056 104.117ZM49.2621 89.3808C50.5466 87.0024 51.901 84.648 53.326 82.3207L56.7373 84.4094C55.3502 86.6748 54.0319 88.9665 52.7816 91.2816L49.2621 89.3808ZM57.7671 75.4904C59.3003 73.2666 60.9018 71.0717 62.5723 68.9087L65.7381 71.3536C64.1118 73.4595 62.5527 75.5962 61.0602 77.7609L57.7671 75.4904ZM67.7276 62.5921C69.4912 60.5458 71.321 58.5326 73.2177 56.5551L76.1045 59.3239C74.257 61.2501 72.4749 63.2108 70.7576 65.2035L67.7276 62.5921ZM79.0051 50.8298C80.9655 48.9891 82.989 47.1843 85.0758 45.4179L87.6601 48.471C85.6256 50.1932 83.6534 51.9523 81.7429 53.7459L79.0051 50.8298ZM91.4191 40.3182C93.5591 38.6846 95.7588 37.0891 98.0187 35.5339L100.286 38.829C98.0803 40.3471 95.9339 41.904 93.8463 43.4977L91.4191 40.3182ZM104.844 31.0753C107.118 29.6658 109.448 28.2951 111.834 26.9651L113.782 30.4589C111.449 31.759 109.173 33.0985 106.951 34.4753L104.844 31.0753ZM119.019 23.1687C121.425 21.9657 123.882 20.8022 126.392 19.6799L128.025 23.3315C125.567 24.4304 123.162 25.5692 120.809 26.7462L119.019 23.1687ZM133.861 16.5255C136.342 15.5372 138.871 14.5875 141.448 13.678L142.78 17.4499C140.252 18.342 137.773 19.273 135.341 20.2416L133.861 16.5255ZM149.187 11.1137C151.733 10.3234 154.324 9.57075 156.958 8.85712L158.004 12.718C155.416 13.419 152.872 14.1581 150.373 14.9339L149.187 11.1137ZM164.812 6.87667C167.431 6.26432 170.09 5.68921 172.791 5.15242L173.571 9.0757C170.913 9.60386 168.297 10.1696 165.723 10.7716L164.812 6.87667ZM180.706 3.70992C183.35 3.27069 186.031 2.86706 188.75 2.49998L189.285 6.46402C186.606 6.82573 183.965 7.22333 181.361 7.65583L180.706 3.70992ZM196.771 1.53562C198.125 1.39238 199.489 1.25796 200.861 1.13245L201.226 5.11583C199.872 5.23962 198.527 5.3722 197.191 5.51345L196.771 1.53562ZM200.861 1.13245C202.202 1.00983 203.536 0.900109 204.863 0.803093L205.155 4.79244C203.852 4.88768 202.543 4.99541 201.226 5.11583L200.861 1.13245ZM212.795 0.370128C215.471 0.274138 218.118 0.230549 220.735 0.237742L220.724 4.23772C218.159 4.23068 215.564 4.2734 212.938 4.36756L212.795 0.370128ZM228.715 0.41939C231.402 0.535029 234.055 0.704977 236.675 0.927329L236.336 4.91299C233.773 4.69537 231.175 4.52895 228.543 4.41569L228.715 0.41939ZM244.601 1.77154C247.266 2.11377 249.893 2.51108 252.483 2.9613L251.797 6.90218C249.266 6.46215 246.698 6.07367 244.092 5.73895L244.601 1.77154ZM260.303 4.50475C262.925 5.08504 265.507 5.72049 268.046 6.4086L267 10.2694C264.521 9.59762 262 8.97708 259.439 8.41027L260.303 4.50475ZM275.693 8.67776C278.248 9.50351 280.759 10.3836 283.223 11.3151L281.809 15.0568C279.405 14.1482 276.957 13.2897 274.463 12.484L275.693 8.67776ZM290.617 14.3214C293.079 15.3946 295.492 16.5202 297.854 17.695L296.073 21.2765C293.771 20.1316 291.419 19.0344 289.019 17.9881L290.617 14.3214ZM304.912 21.4321C307.252 22.7491 309.538 24.1152 311.77 25.5271L309.631 28.9074C307.458 27.5322 305.23 26.2012 302.95 24.9182L304.912 21.4321ZM318.408 29.972C320.6 31.5234 322.732 33.1199 324.806 34.7573L322.327 37.8966C320.308 36.3022 318.231 34.7476 316.097 33.2366L318.408 29.972ZM330.944 39.8722C332.96 41.6448 334.913 43.457 336.803 45.3044L334.006 48.1642C332.167 46.3662 330.266 44.6022 328.303 42.8764L330.944 39.8722ZM342.363 51.0407C344.18 53.0181 345.928 55.0285 347.607 57.0671L344.519 59.6099C342.886 57.6269 341.185 55.6709 339.418 53.7468L342.363 51.0407ZM352.513 63.3687C354.108 65.5378 355.628 67.7321 357.073 69.9464L353.722 72.132C352.319 69.9803 350.841 67.8474 349.29 65.7384L352.513 63.3687ZM361.252 76.7713C362.593 79.109 363.852 81.4626 365.028 83.8263L361.447 85.608C360.306 83.3154 359.085 81.0312 357.783 78.7614L361.252 76.7713ZM368.371 91.0928C369.425 93.5831 370.388 96.0781 371.258 98.5709L367.481 99.8892C366.64 97.4788 365.708 95.064 364.687 92.6517L368.371 91.0928ZM373.645 106.234C374.362 108.849 374.975 111.454 375.484 114.041L371.56 114.813C371.07 112.324 370.479 109.814 369.788 107.291L373.645 106.234ZM376.727 121.993C376.881 123.333 377.005 124.666 377.101 125.991L373.111 126.278C373.02 125.011 372.9 123.734 372.753 122.45L376.727 121.993ZM377.101 125.991C377.199 127.359 377.281 128.725 377.347 130.088L373.351 130.281C373.287 128.949 373.207 127.615 373.111 126.278L377.101 125.991ZM377.546 138.233C377.548 140.939 377.487 143.633 377.363 146.315L373.367 146.131C373.488 143.511 373.548 140.879 373.546 138.236L377.546 138.233ZM376.796 154.452C376.544 157.152 376.23 159.839 375.855 162.514L371.894 161.96C372.26 159.345 372.567 156.718 372.813 154.08L376.796 154.452ZM374.546 170.528C374.049 173.192 373.493 175.842 372.879 178.48L368.983 177.573C369.584 174.992 370.128 172.399 370.614 169.795L374.546 170.528ZM370.868 186.346C370.144 188.948 369.364 191.536 368.531 194.111L364.725 192.879C365.542 190.356 366.306 187.82 367.015 185.273L370.868 186.346ZM365.872 201.794C364.941 204.32 363.959 206.833 362.928 209.332L359.23 207.807C360.242 205.354 361.205 202.888 362.118 200.411L365.872 201.794ZM359.696 216.774C358.577 219.228 357.411 221.668 356.201 224.095L352.622 222.309C353.812 219.923 354.958 217.525 356.057 215.115L359.696 216.774ZM352.47 231.267C351.184 233.644 349.855 236.008 348.485 238.358L345.029 236.343C346.378 234.029 347.687 231.702 348.953 229.363L352.47 231.267ZM344.319 245.261C342.894 247.545 341.431 249.816 339.932 252.073L336.6 249.859C338.079 247.633 339.521 245.395 340.925 243.144L344.319 245.261ZM335.358 258.758C333.814 260.95 332.237 263.128 330.628 265.294L327.418 262.907C329.007 260.769 330.564 258.618 332.087 256.455L335.358 258.758ZM325.705 271.749C324.055 273.859 322.375 275.955 320.667 278.038L317.574 275.502C319.263 273.442 320.924 271.37 322.554 269.285L325.705 271.749ZM315.473 284.231C313.72 286.275 311.94 288.306 310.135 290.324L307.154 287.656C308.941 285.659 310.702 283.649 312.437 281.627L315.473 284.231ZM304.706 296.27C302.872 298.24 301.015 300.196 299.135 302.139L296.26 299.358C298.122 297.433 299.962 295.495 301.778 293.545L304.706 296.27ZM293.471 307.889C291.571 309.783 289.651 311.664 287.712 313.533L284.937 310.652C286.86 308.799 288.764 306.934 290.647 305.056L293.471 307.889ZM281.837 319.098C279.876 320.926 277.897 322.74 275.902 324.542L273.221 321.573C275.201 319.785 277.164 317.985 279.11 316.172L281.837 319.098ZM269.872 329.904C267.849 331.676 265.811 333.436 263.759 335.182L261.167 332.135C263.204 330.401 265.228 328.654 267.237 326.895L269.872 329.904ZM257.585 340.361C255.514 342.074 253.43 343.774 251.335 345.461L248.826 342.345C250.908 340.669 252.978 338.98 255.035 337.279L257.585 340.361ZM245.019 350.479C242.904 352.138 240.778 353.784 238.644 355.416L236.214 352.238C238.336 350.616 240.448 348.98 242.55 347.332L245.019 350.479ZM232.215 360.271C230.057 361.882 227.891 363.478 225.719 365.061L223.363 361.828C225.524 360.254 227.677 358.666 229.823 357.065L232.215 360.271ZM219.178 369.771C216.99 371.328 214.797 372.872 212.599 374.401L210.314 371.118C212.5 369.597 214.682 368.061 216.859 366.512L219.178 369.771ZM205.942 378.984C203.72 380.497 201.495 381.996 199.268 383.48L197.05 380.151C199.266 378.674 201.48 377.183 203.691 375.677L205.942 378.984ZM192.542 387.916C190.28 389.392 188.019 390.852 185.758 392.298L183.603 388.928C185.854 387.489 188.105 386.035 190.355 384.566L192.542 387.916ZM178.98 396.588C176.686 398.026 174.394 399.448 172.106 400.855L170.012 397.447C172.29 396.047 174.572 394.631 176.856 393.199L178.98 396.588ZM165.226 405.042C162.924 406.429 160.627 407.8 158.337 409.155L156.301 405.712C158.582 404.363 160.869 402.998 163.161 401.616L165.226 405.042ZM151.345 413.252C149.021 414.601 146.707 415.932 144.402 417.245L142.421 413.77C144.717 412.462 147.023 411.136 149.336 409.793L151.345 413.252ZM137.356 421.225C134.995 422.546 132.646 423.848 130.312 425.131L128.385 421.626C130.711 420.347 133.051 419.05 135.402 417.734L137.356 421.225ZM123.273 428.965C120.871 430.263 118.485 431.539 116.118 432.794L114.244 429.261C116.602 428.01 118.979 426.738 121.373 425.446L123.273 428.965ZM109.077 436.497C106.637 437.768 104.221 439.017 101.83 440.241L100.006 436.681C102.389 435.461 104.797 434.217 107.228 432.95L109.077 436.497ZM94.708 443.857C92.256 445.091 89.8339 446.299 87.4441 447.48L85.6712 443.895C88.0527 442.717 90.4664 441.513 92.9098 440.284L94.708 443.857ZM80.2529 451.005C77.7793 452.207 75.3453 453.379 72.954 454.52L71.2311 450.91C73.6142 449.773 76.0398 448.605 78.5047 447.407L80.2529 451.005ZM65.7213 457.941C63.2089 459.119 60.751 460.26 58.3517 461.364L56.6795 457.731C59.0704 456.63 61.5197 455.493 64.0235 454.319L65.7213 457.941ZM51.1437 464.651C48.5657 465.816 46.0682 466.933 43.657 468.001L42.0371 464.343C44.4395 463.279 46.928 462.167 49.4968 461.006L51.1437 464.651ZM36.3261 471.216C33.7627 472.328 31.3221 473.376 29.0132 474.357L27.449 470.675C29.7487 469.698 32.1797 468.655 34.7334 467.546L36.3261 471.216ZM21.4872 477.517C18.7145 478.667 16.2174 479.686 14.0199 480.573L12.5232 476.864C14.7091 475.982 17.1942 474.967 19.9546 473.822L21.4872 477.517ZM6.53277 483.543C5.35315 484.001 4.44934 484.348 3.83933 484.579C3.5343 484.695 3.30273 484.783 3.14694 484.841C3.06901 484.871 3.00999 484.893 2.97022 484.908C2.95031 484.915 2.9352 484.921 2.92495 484.924C2.91986 484.926 2.91593 484.928 2.91318 484.929C2.91183 484.929 2.91078 484.93 2.91007 484.93C2.90966 484.93 2.90937 484.93 2.9092 484.93C2.90908 484.93 2.90896 484.93 2.9089 484.93C2.90884 484.93 2.90885 484.93 2.90879 484.93C2.90879 484.93 2.90872 484.93 2.21167 483.056C1.51461 481.181 1.51461 481.181 1.51455 481.181C1.51455 481.181 1.51461 481.181 1.5146 481.181C1.51472 481.181 1.51484 481.181 1.51507 481.181C1.51554 481.181 1.51636 481.181 1.51742 481.18C1.51958 481.179 1.52292 481.178 1.52755 481.176C1.53669 481.173 1.55068 481.168 1.56948 481.161C1.60702 481.147 1.66382 481.125 1.73946 481.097C1.89086 481.04 2.11787 480.954 2.41828 480.84C3.0191 480.612 3.91344 480.27 5.08341 479.815L6.53277 483.543Z" fill="#F64775"/>
</svg>
