<svg width="725" height="592" viewBox="0 0 725 592" fill="none" xmlns="http://www.w3.org/2000/svg">
<path opacity="0.25" d="M11.1482 590.816C10.1533 591.296 8.95776 590.878 8.47794 589.883L0.658852 573.67C0.179033 572.675 0.596598 571.48 1.59151 571C2.58642 570.52 3.78193 570.938 4.26175 571.933L11.212 586.344L25.6236 579.394C26.6185 578.914 27.814 579.332 28.2938 580.327C28.7737 581.322 28.3561 582.517 27.3612 582.997L11.1482 590.816ZM224.334 309.524L223.344 307.786L224.334 309.524ZM686.81 261.871L688.32 260.56L686.81 261.871ZM596.986 517.317L597.685 519.191L596.986 517.317ZM396.712 444.38L398.599 443.717L396.712 444.38ZM10.2794 589.015C8.39124 588.355 8.39126 588.355 8.39127 588.355C8.39128 588.355 8.3913 588.355 8.39132 588.355C8.39135 588.355 8.39139 588.355 8.39144 588.355C8.39153 588.354 8.39165 588.354 8.39179 588.354C8.39208 588.353 8.39249 588.352 8.393 588.35C8.39403 588.347 8.3955 588.343 8.39741 588.338C8.40122 588.327 8.4068 588.311 8.41414 588.29C8.42882 588.248 8.45054 588.187 8.47933 588.106C8.53691 587.944 8.62271 587.704 8.73682 587.388C8.96505 586.757 9.30648 585.824 9.76164 584.61L13.5071 586.014C13.0576 587.213 12.7215 588.132 12.4984 588.749C12.3868 589.057 12.3035 589.29 12.2484 589.445C12.2209 589.523 12.2003 589.581 12.1869 589.619C12.1801 589.638 12.1751 589.652 12.1719 589.662C12.1703 589.666 12.1691 589.669 12.1684 589.672C12.168 589.673 12.1678 589.673 12.1676 589.674C12.1676 589.674 12.1675 589.674 12.1675 589.674C12.1675 589.674 12.1675 589.674 12.1675 589.674C12.1675 589.674 12.1675 589.674 12.1675 589.674C12.1675 589.674 12.1675 589.674 10.2794 589.015ZM12.721 576.96C13.619 574.7 14.6575 572.135 15.8372 569.292L19.5318 570.825C18.36 573.649 17.3291 576.196 16.4382 578.437L12.721 576.96ZM19.0005 561.81C20.0185 559.444 21.1105 556.946 22.2767 554.325L25.9311 555.952C24.7718 558.557 23.6864 561.04 22.6746 563.391L19.0005 561.81ZM25.65 546.864C26.7523 544.464 27.9081 541.982 29.1174 539.426L32.7331 541.137C31.5305 543.679 30.3812 546.146 29.2851 548.533L25.65 546.864ZM32.6477 532.072C33.8061 529.692 35.0065 527.26 36.2491 524.778L39.8258 526.569C38.59 529.037 37.3961 531.457 36.244 533.823L32.6477 532.072ZM39.9475 517.492C41.177 515.103 42.4431 512.675 43.7457 510.212L47.2817 512.082C45.9862 514.532 44.727 516.946 43.5042 519.323L39.9475 517.492ZM47.601 503.019C48.8792 500.665 50.1891 498.285 51.5309 495.88L55.0241 497.828C53.6898 500.22 52.3871 502.588 51.116 504.928L47.601 503.019ZM55.5687 488.737C56.906 486.403 58.2721 484.049 59.6673 481.678L63.1149 483.707C61.7276 486.064 60.3692 488.405 59.0395 490.726L55.5687 488.737ZM63.8467 474.669C65.2501 472.347 66.6807 470.01 68.1386 467.662L71.5369 469.772C70.0877 472.106 68.6655 474.429 67.2702 476.738L63.8467 474.669ZM72.4715 460.776C73.9279 458.493 75.4098 456.2 76.917 453.901L80.2624 456.094C78.7644 458.379 77.2916 460.657 75.844 462.927L72.4715 460.776ZM81.4434 447.09C82.955 444.847 84.4907 442.599 86.0504 440.348L89.3381 442.626C87.7885 444.863 86.2626 447.096 84.7606 449.325L81.4434 447.09ZM90.7678 433.636C92.3371 431.435 93.9294 429.233 95.5447 427.032L98.7697 429.398C97.1653 431.585 95.5836 433.772 94.0247 435.959L90.7678 433.636ZM100.442 420.456C102.075 418.294 103.731 416.135 105.409 413.98L108.565 416.437C106.899 418.577 105.255 420.721 103.633 422.868L100.442 420.456ZM110.488 407.556C112.189 405.438 113.911 403.326 115.655 401.22L118.736 403.772C117.005 405.861 115.295 407.958 113.607 410.061L110.488 407.556ZM120.924 394.96C122.693 392.892 124.483 390.832 126.295 388.782L129.292 391.431C127.495 393.465 125.719 395.508 123.964 397.56L120.924 394.96ZM131.762 382.699C133.6 380.688 135.46 378.688 137.341 376.701L140.246 379.45C138.381 381.421 136.537 383.404 134.714 385.398L131.762 382.699ZM143.014 370.811C144.924 368.864 146.855 366.93 148.806 365.012L151.61 367.865C149.676 369.766 147.763 371.682 145.87 373.612L143.014 370.811ZM154.694 359.335C156.676 357.459 158.679 355.6 160.703 353.759L163.394 356.719C161.39 358.541 159.406 360.383 157.443 362.24L154.694 359.335ZM166.811 348.315C168.867 346.52 170.943 344.744 173.04 342.988L175.608 346.055C173.532 347.793 171.477 349.551 169.442 351.328L166.811 348.315ZM179.375 337.8C181.506 336.094 183.657 334.409 185.829 332.747L188.26 335.924C186.112 337.567 183.984 339.234 181.876 340.922L179.375 337.8ZM192.393 327.844C194.599 326.236 196.826 324.651 199.074 323.093L201.353 326.38C199.132 327.92 196.931 329.486 194.749 331.076L192.393 327.844ZM205.865 318.504C208.147 317.003 210.449 315.529 212.772 314.084L214.885 317.48C212.591 318.907 210.318 320.363 208.064 321.846L205.865 318.504ZM219.789 309.841C220.969 309.148 222.154 308.463 223.344 307.786L225.323 311.262C224.148 311.931 222.979 312.607 221.814 313.291L219.789 309.841ZM223.344 307.786C224.496 307.13 225.65 306.476 226.807 305.826L228.768 309.312C227.617 309.959 226.469 310.609 225.323 311.262L223.344 307.786ZM233.769 301.956C236.097 300.677 238.433 299.41 240.776 298.154L242.666 301.679C240.335 302.929 238.011 304.19 235.695 305.462L233.769 301.956ZM247.814 294.426C250.167 293.194 252.527 291.974 254.894 290.766L256.713 294.328C254.358 295.531 252.01 296.745 249.669 297.97L247.814 294.426ZM262.006 287.178C264.383 285.993 266.766 284.821 269.155 283.66L270.903 287.257C268.527 288.413 266.155 289.58 263.79 290.758L262.006 287.178ZM276.338 280.212C278.738 279.074 281.144 277.948 283.554 276.834L285.232 280.465C282.834 281.574 280.44 282.694 278.051 283.826L276.338 280.212ZM290.801 273.528C293.225 272.437 295.653 271.358 298.084 270.291L299.691 273.954C297.271 275.015 294.855 276.089 292.443 277.175L290.801 273.528ZM305.39 267.129C307.837 266.084 310.287 265.052 312.739 264.032L314.274 267.726C311.834 268.74 309.396 269.767 306.961 270.807L305.39 267.129ZM320.107 261.013C322.573 260.016 325.042 259.033 327.512 258.063L328.974 261.786C326.516 262.751 324.06 263.73 321.606 264.721L320.107 261.013ZM334.942 255.187C337.426 254.24 339.911 253.306 342.397 252.387L343.785 256.138C341.312 257.053 338.839 257.982 336.368 258.924L334.942 255.187ZM349.891 249.657C352.39 248.761 354.89 247.879 357.39 247.011L358.702 250.79C356.215 251.653 353.728 252.531 351.241 253.422L349.891 249.657ZM364.947 244.431C367.466 243.585 369.984 242.754 372.501 241.938L373.735 245.743C371.231 246.555 368.726 247.381 366.22 248.223L364.947 244.431ZM380.107 239.516C382.646 238.723 385.183 237.944 387.719 237.181L388.872 241.012C386.35 241.77 383.826 242.545 381.3 243.334L380.107 239.516ZM395.366 234.925C397.925 234.185 400.482 233.461 403.036 232.753L404.105 236.608C401.565 237.312 399.022 238.032 396.477 238.768L395.366 234.925ZM410.721 230.67C413.301 229.986 415.877 229.319 418.449 228.668L419.429 232.546C416.872 233.193 414.311 233.856 411.746 234.536L410.721 230.67ZM426.168 226.765C428.768 226.14 431.363 225.533 433.953 224.943L434.84 228.844C432.267 229.429 429.687 230.033 427.103 230.654L426.168 226.765ZM441.704 223.229C444.324 222.667 446.938 222.123 449.544 221.598L450.334 225.519C447.744 226.041 445.147 226.581 442.544 227.14L441.704 223.229ZM457.343 220.08C459.976 219.585 462.602 219.111 465.219 218.656L465.904 222.596C463.305 223.048 460.697 223.52 458.081 224.011L457.343 220.08ZM473.061 217.348C475.708 216.926 478.345 216.524 480.972 216.144L481.545 220.103C478.937 220.48 476.319 220.879 473.692 221.298L473.061 217.348ZM488.853 215.063C491.512 214.719 494.16 214.397 496.796 214.097L497.248 218.071C494.633 218.369 492.005 218.688 489.366 219.03L488.853 215.063ZM504.709 213.262C507.38 213.002 510.039 212.766 512.683 212.554L513.003 216.541C510.381 216.751 507.745 216.985 505.096 217.243L504.709 213.262ZM520.618 211.987C523.301 211.82 525.969 211.678 528.621 211.562L528.796 215.558C526.17 215.673 523.526 215.813 520.867 215.979L520.618 211.987ZM536.565 211.291C539.259 211.225 541.935 211.188 544.593 211.178L544.607 215.178C541.978 215.187 539.329 215.225 536.662 215.29L536.565 211.291ZM552.538 211.234C555.237 211.283 557.916 211.362 560.573 211.471L560.408 215.468C557.783 215.36 555.135 215.282 552.466 215.234L552.538 211.234ZM568.532 211.895C571.221 212.072 573.885 212.281 576.525 212.523L576.159 216.506C573.555 216.267 570.925 216.061 568.27 215.887L568.532 211.895ZM584.483 213.365C587.149 213.685 589.788 214.04 592.397 214.432L591.804 218.388C589.234 218.002 586.635 217.652 584.006 217.336L584.483 213.365ZM600.329 215.752C602.97 216.235 605.578 216.758 608.153 217.321L607.299 221.229C604.77 220.676 602.206 220.162 599.608 219.686L600.329 215.752ZM615.981 219.183C618.598 219.858 621.177 220.577 623.716 221.34L622.563 225.171C620.077 224.423 617.549 223.718 614.982 223.056L615.981 219.183ZM631.316 223.803C633.884 224.698 636.408 225.642 638.883 226.637L637.392 230.349C634.976 229.378 632.512 228.456 630 227.581L631.316 223.803ZM646.272 229.821C648.722 230.952 651.12 232.137 653.464 233.377L651.594 236.913C649.315 235.707 646.982 234.554 644.595 233.453L646.272 229.821ZM660.5 237.365C662.817 238.771 665.074 240.238 667.268 241.765L664.983 245.048C662.859 243.57 660.673 242.149 658.425 240.785L660.5 237.365ZM673.732 246.589C675.846 248.279 677.891 250.035 679.865 251.856L677.154 254.796C675.249 253.04 673.275 251.345 671.234 249.712L673.732 246.589ZM685.611 257.556C686.533 258.54 687.436 259.542 688.32 260.56L685.3 263.182C684.449 262.202 683.579 261.238 682.691 260.29L685.611 257.556ZM688.32 260.56C689.21 261.584 690.086 262.623 690.947 263.676L687.851 266.209C687.015 265.186 686.164 264.177 685.3 263.182L688.32 260.56ZM695.928 270.136C697.522 272.331 699.057 274.577 700.532 276.869L697.168 279.033C695.734 276.804 694.241 274.62 692.692 272.487L695.928 270.136ZM704.752 283.847C706.09 286.204 707.368 288.605 708.582 291.044L705.001 292.826C703.819 290.452 702.576 288.116 701.273 285.821L704.752 283.847ZM712.017 298.436C713.093 300.924 714.105 303.447 715.052 306.001L711.302 307.391C710.38 304.904 709.393 302.447 708.346 300.024L712.017 298.436ZM717.683 313.714C718.489 316.301 719.23 318.914 719.902 321.552L716.027 322.541C715.371 319.971 714.65 317.424 713.864 314.905L717.683 313.714ZM721.708 329.496C722.239 332.153 722.702 334.83 723.095 337.524L719.137 338.101C718.754 335.476 718.303 332.868 717.786 330.28L721.708 329.496ZM724.058 345.614C724.307 348.312 724.486 351.023 724.593 353.745L720.596 353.902C720.492 351.251 720.317 348.61 720.075 345.982L724.058 345.614ZM724.696 361.893C724.659 364.602 724.549 367.317 724.366 370.037L720.375 369.768C720.553 367.12 720.66 364.475 720.697 361.838L724.696 361.893ZM723.599 378.154C723.272 380.843 722.871 383.532 722.396 386.22L718.457 385.523C718.92 382.907 719.31 380.288 719.628 377.671L723.599 378.154ZM720.76 394.201C720.146 396.833 719.458 399.46 718.695 402.081L714.854 400.962C715.597 398.411 716.267 395.854 716.865 393.292L720.76 394.201ZM716.205 409.838C715.31 412.386 714.342 414.925 713.298 417.451L709.601 415.924C710.617 413.465 711.56 410.994 712.431 408.513L716.205 409.838ZM709.985 424.901C708.821 427.339 707.584 429.762 706.274 432.168L702.761 430.256C704.037 427.912 705.242 425.551 706.375 423.177L709.985 424.901ZM702.195 439.213C700.787 441.505 699.309 443.778 697.76 446.031L694.464 443.764C695.975 441.568 697.415 439.352 698.787 437.119L702.195 439.213ZM692.98 452.618C691.345 454.757 689.642 456.874 687.87 458.969L684.816 456.386C686.546 454.341 688.207 452.275 689.803 450.189L692.98 452.618ZM682.457 465.065C680.633 467.022 678.745 468.957 676.793 470.867L673.995 468.008C675.904 466.141 677.748 464.25 679.53 462.338L682.457 465.065ZM670.858 476.419C668.853 478.212 666.788 479.98 664.661 481.723L662.126 478.629C664.209 476.923 666.23 475.192 668.191 473.437L670.858 476.419ZM658.284 486.729C656.15 488.335 653.959 489.916 651.712 491.471L649.436 488.181C651.64 486.656 653.788 485.106 655.879 483.533L658.284 486.729ZM644.919 495.979C642.67 497.411 640.369 498.818 638.015 500.199L635.991 496.748C638.303 495.392 640.563 494.01 642.771 492.605L644.919 495.979ZM630.957 504.174C628.591 505.453 626.176 506.707 623.711 507.935L621.928 504.354C624.353 503.146 626.729 501.913 629.054 500.655L630.957 504.174ZM616.454 511.407C614.019 512.525 611.538 513.619 609.011 514.688L607.453 511.004C609.943 509.951 612.387 508.873 614.785 507.772L616.454 511.407ZM601.526 517.727C600.256 518.221 598.976 518.709 597.685 519.191L596.286 515.443C597.56 514.968 598.823 514.487 600.074 513.999L601.526 517.727ZM597.685 519.191C596.423 519.662 595.165 520.118 593.91 520.56L592.58 516.788C593.812 516.354 595.047 515.906 596.286 515.443L597.685 519.191ZM586.371 523.063C583.814 523.859 581.272 524.597 578.745 525.277L577.704 521.415C580.181 520.748 582.674 520.024 585.182 519.244L586.371 523.063ZM570.997 527.2C568.375 527.794 565.77 528.328 563.184 528.801L562.463 524.867C564.994 524.403 567.544 523.881 570.113 523.299L570.997 527.2ZM555.315 530.07C552.654 530.44 550.015 530.747 547.398 530.994L547.023 527.011C549.581 526.771 552.161 526.47 554.763 526.108L555.315 530.07ZM539.446 531.56C536.764 531.689 534.106 531.755 531.475 531.758L531.47 527.758C534.039 527.755 536.633 527.691 539.254 527.565L539.446 531.56ZM523.501 531.579C520.818 531.454 518.165 531.264 515.542 531.013L515.923 527.031C518.481 527.276 521.069 527.461 523.687 527.583L523.501 531.579ZM507.618 530.056C504.96 529.668 502.337 529.216 499.749 528.703L500.526 524.779C503.048 525.279 505.605 525.719 508.196 526.098L507.618 530.056ZM491.957 526.952C489.353 526.297 486.788 525.579 484.264 524.804L485.439 520.98C487.897 521.736 490.396 522.434 492.933 523.073L491.957 526.952ZM476.691 522.26C474.169 521.339 471.691 520.359 469.26 519.324L470.827 515.644C473.194 516.651 475.606 517.605 478.063 518.502L476.691 522.26ZM461.994 516.002C459.582 514.822 457.221 513.587 454.913 512.301L456.86 508.807C459.107 510.058 461.404 511.261 463.752 512.41L461.994 516.002ZM448.04 508.228C445.768 506.797 443.553 505.317 441.398 503.791L443.708 500.526C445.805 502.011 447.96 503.451 450.171 504.843L448.04 508.228ZM435.007 499.001C432.898 497.327 430.855 495.61 428.879 493.853L431.537 490.864C433.457 492.571 435.443 494.24 437.494 495.868L435.007 499.001ZM423.053 488.366C421.144 486.463 419.311 484.523 417.556 482.552L420.543 479.891C422.246 481.804 424.025 483.686 425.877 485.534L423.053 488.366ZM412.42 476.419C410.749 474.294 409.164 472.139 407.669 469.963L410.967 467.698C412.412 469.803 413.946 471.888 415.564 473.947L412.42 476.419ZM403.352 463.197C401.973 460.862 400.696 458.51 399.525 456.147L403.109 454.371C404.236 456.644 405.466 458.91 406.796 461.163L403.352 463.197ZM396.237 448.801C395.736 447.549 395.265 446.296 394.825 445.043L398.599 443.717C399.02 444.916 399.471 446.116 399.951 447.316L396.237 448.801ZM394.825 445.043C394.371 443.748 393.933 442.452 393.511 441.154L397.315 439.918C397.727 441.186 398.155 442.453 398.599 443.717L394.825 445.043ZM391.178 433.348C390.465 430.738 389.816 428.122 389.23 425.502L393.134 424.629C393.706 427.189 394.34 429.744 395.037 432.293L391.178 433.348ZM387.639 417.502C387.172 414.831 386.769 412.155 386.428 409.476L390.395 408.97C390.729 411.589 391.123 414.204 391.579 416.814L387.639 417.502ZM385.584 401.4C385.364 398.699 385.204 395.995 385.103 393.289L389.1 393.14C389.199 395.788 389.355 398.433 389.571 401.074L385.584 401.4ZM384.975 385.171C384.991 382.471 385.063 379.769 385.19 377.065L389.186 377.254C389.061 379.903 388.99 382.55 388.975 385.194L384.975 385.171ZM385.736 368.953C385.97 366.271 386.257 363.589 386.595 360.907L390.564 361.406C390.232 364.039 389.951 366.671 389.721 369.301L385.736 368.953ZM387.757 352.876C388.192 350.215 388.676 347.554 389.206 344.895L393.129 345.677C392.607 348.292 392.132 350.907 391.705 353.521L387.757 352.876ZM390.92 336.994C391.537 334.362 392.198 331.732 392.902 329.105L396.766 330.14C396.072 332.728 395.421 335.317 394.815 337.906L390.92 336.994ZM395.107 321.35C395.881 318.771 396.696 316.196 397.549 313.624L401.346 314.884C400.504 317.421 399.701 319.96 398.938 322.5L395.107 321.35ZM400.206 305.972C401.119 303.452 402.068 300.935 403.052 298.423L406.776 299.882C405.805 302.363 404.868 304.847 403.967 307.334L400.206 305.972ZM406.105 290.9C407.142 288.432 408.212 285.968 409.312 283.509L412.963 285.143C411.875 287.574 410.818 290.01 409.793 292.45L406.105 290.9ZM412.697 276.169C413.851 273.736 415.034 271.308 416.246 268.887L419.823 270.677C418.624 273.074 417.452 275.476 416.311 277.883L412.697 276.169ZM419.921 261.722C421.172 259.34 422.45 256.965 423.753 254.596L427.258 256.523C425.967 258.87 424.701 261.224 423.462 263.583L419.921 261.722ZM427.707 247.56C429.042 245.233 430.4 242.913 431.78 240.6L435.215 242.651C433.846 244.944 432.5 247.244 431.176 249.55L427.707 247.56ZM435.986 233.686C437.398 231.408 438.83 229.137 440.281 226.874L443.648 229.034C442.208 231.279 440.787 233.532 439.386 235.793L435.986 233.686ZM444.69 220.116C446.176 217.874 447.68 215.641 449.201 213.417L452.503 215.675C450.992 217.884 449.499 220.101 448.023 222.326L444.69 220.116ZM453.797 206.797C455.345 204.6 456.909 202.412 458.487 200.234L461.726 202.581C460.158 204.745 458.605 206.918 457.067 209.101L453.797 206.797ZM463.262 193.732C464.867 191.575 466.485 189.429 468.115 187.293L471.295 189.721C469.674 191.844 468.066 193.977 466.471 196.12L463.262 193.732ZM473.042 180.919C474.701 178.798 476.371 176.688 478.051 174.591L481.173 177.091C479.502 179.177 477.842 181.275 476.192 183.383L473.042 180.919ZM483.123 168.327C484.825 166.249 486.536 164.183 488.254 162.13L491.322 164.697C489.612 166.74 487.911 168.795 486.218 170.862L483.123 168.327ZM493.472 155.959C495.219 153.915 496.972 151.884 498.731 149.867L501.746 152.495C499.996 154.503 498.251 156.524 496.514 158.557L493.472 155.959ZM504.055 143.819C505.848 141.801 507.646 139.797 509.448 137.808L512.413 140.494C510.619 142.473 508.83 144.468 507.044 146.476L504.055 143.819ZM514.86 131.887C516.695 129.897 518.533 127.922 520.371 125.964L523.287 128.702C521.457 130.651 519.628 132.617 517.8 134.599L514.86 131.887ZM525.909 120.116C527.765 118.172 529.621 116.246 531.474 114.337L534.344 117.123C532.498 119.024 530.65 120.943 528.801 122.878L525.909 120.116ZM537.144 108.546C539.031 106.634 540.915 104.741 542.793 102.868L545.617 105.701C543.746 107.567 541.87 109.452 539.991 111.356L537.144 108.546ZM548.546 97.177C550.476 95.2818 552.4 93.408 554.316 91.5563L557.096 94.4321C555.188 96.2769 553.271 98.1436 551.348 100.032L548.546 97.177ZM560.099 86.007C562.076 84.124 564.042 82.2655 565.996 80.4322L568.733 83.3491C566.786 85.1757 564.827 87.0274 562.857 88.9035L560.099 86.007ZM571.817 75.0089C573.836 73.1411 575.839 71.3017 577.825 69.4915L580.52 72.4475C578.541 74.2512 576.545 76.0841 574.533 77.9453L571.817 75.0089ZM583.746 64.1315C585.787 62.2964 587.807 60.4943 589.802 58.7261L592.455 61.7197C590.467 63.4818 588.454 65.2776 586.42 67.1062L583.746 64.1315ZM595.814 53.4351C597.885 51.6254 599.925 49.8552 601.932 48.1256L604.543 51.1558C602.543 52.8795 600.51 54.6436 598.446 56.447L595.814 53.4351ZM608.012 42.9237C610.126 41.1269 612.198 39.3798 614.222 37.6838L616.791 40.7502C614.773 42.4403 612.709 44.1813 610.602 45.9719L608.012 42.9237ZM620.313 32.618C622.494 30.8167 624.611 29.0829 626.656 27.4187L629.181 30.5216C627.142 32.1797 625.034 33.9073 622.86 35.7022L620.313 32.618ZM632.884 22.3901C635.065 20.6427 637.145 18.9908 639.115 17.4374L641.592 20.5783C639.63 22.1255 637.558 23.771 635.386 25.5117L632.884 22.3901ZM645.546 12.4102C647.918 10.5718 650.06 8.93185 651.947 7.49876L654.366 10.6844C652.489 12.1099 650.358 13.742 647.995 15.5723L645.546 12.4102ZM658.39 2.66566C659.408 1.91315 660.189 1.34169 660.717 0.957659C660.981 0.765634 661.181 0.620488 661.316 0.523023C661.383 0.474307 661.435 0.437458 661.469 0.412649C661.486 0.400232 661.499 0.390827 661.508 0.384456C661.513 0.381269 661.516 0.378843 661.518 0.377123C661.52 0.376289 661.521 0.375632 661.521 0.375203C661.522 0.37495 661.522 0.374774 661.522 0.374645C661.522 0.374569 661.522 0.374493 661.522 0.374469C661.522 0.374445 661.522 0.374417 661.522 0.374393C661.522 0.374393 661.522 0.374369 662.688 1.99984C663.853 3.62531 663.853 3.62531 663.853 3.62529C663.853 3.62529 663.853 3.62531 663.853 3.62534C663.853 3.62539 663.853 3.62546 663.852 3.62561C663.852 3.62592 663.851 3.62642 663.85 3.62708C663.849 3.62842 663.846 3.63049 663.842 3.63338C663.834 3.63907 663.822 3.64779 663.805 3.6595C663.773 3.68291 663.724 3.71837 663.658 3.76567C663.527 3.86038 663.33 4.00267 663.071 4.19178C662.551 4.57001 661.778 5.13547 660.769 5.88182L658.39 2.66566Z" fill="#4D5454"/>
</svg>
