<svg width="46" height="47" viewBox="0 0 46 47" fill="none" xmlns="http://www.w3.org/2000/svg">
<rect x="3" y="3.5" width="40" height="40" rx="20" fill="#007EAF"/>
<rect x="3" y="3.5" width="40" height="40" rx="20" stroke="#F9FAFB" stroke-width="6"/>
<path d="M19.666 26.8333L22.9993 23.5M22.9993 23.5L26.3327 26.8333M22.9993 23.5V31M29.666 27.4524C30.6839 26.6117 31.3327 25.3399 31.3327 23.9167C31.3327 21.3854 29.2807 19.3333 26.7493 19.3333C26.5673 19.3333 26.3969 19.2383 26.3044 19.0814C25.2177 17.2374 23.2114 16 20.916 16C17.4642 16 14.666 18.7982 14.666 22.25C14.666 23.9718 15.3622 25.5309 16.4885 26.6613" stroke="white" stroke-width="1.66667" stroke-linecap="round" stroke-linejoin="round"/>
</svg>
