<svg width="325" height="520" viewBox="0 0 325 520" fill="none" xmlns="http://www.w3.org/2000/svg">
<g filter="url(#filter0_b_4079_372)">
<path d="M0 38.4C0 24.9587 0 18.2381 2.61584 13.1042C4.9168 8.58834 8.58834 4.9168 13.1042 2.61584C18.2381 0 24.9587 0 38.4 0H286.6C300.041 0 306.762 0 311.896 2.61584C316.412 4.9168 320.083 8.58834 322.384 13.1042C325 18.2381 325 24.9587 325 38.4V481.6C325 495.041 325 501.762 322.384 506.896C320.083 511.412 316.412 515.083 311.896 517.384C306.762 520 300.041 520 286.6 520H38.4C24.9587 520 18.2381 520 13.1042 517.384C8.58834 515.083 4.9168 511.412 2.61584 506.896C0 501.762 0 495.041 0 481.6V38.4Z" fill="url(#paint0_linear_4079_372)" fill-opacity="0.4"/>
<path d="M1.5 38.4C1.5 31.6546 1.50117 26.6858 1.822 22.759C2.1414 18.8497 2.77013 16.1055 3.95235 13.7852C6.1095 9.55157 9.55157 6.1095 13.7852 3.95235C16.1055 2.77013 18.8497 2.1414 22.759 1.822C26.6858 1.50117 31.6546 1.5 38.4 1.5H286.6C293.345 1.5 298.314 1.50117 302.241 1.822C306.15 2.1414 308.895 2.77013 311.215 3.95235C315.448 6.1095 318.891 9.55157 321.048 13.7852C322.23 16.1055 322.859 18.8497 323.178 22.759C323.499 26.6858 323.5 31.6546 323.5 38.4V481.6C323.5 488.345 323.499 493.314 323.178 497.241C322.859 501.15 322.23 503.895 321.048 506.215C318.891 510.448 315.448 513.891 311.215 516.048C308.895 517.23 306.15 517.859 302.241 518.178C298.314 518.499 293.345 518.5 286.6 518.5H38.4C31.6546 518.5 26.6858 518.499 22.759 518.178C18.8497 517.859 16.1055 517.23 13.7852 516.048C9.55157 513.891 6.1095 510.448 3.95235 506.215C2.77013 503.895 2.1414 501.15 1.822 497.241C1.50117 493.314 1.5 488.345 1.5 481.6V38.4Z" stroke="url(#paint1_linear_4079_372)" stroke-width="3"/>
</g>
<defs>
<filter id="filter0_b_4079_372" x="-30" y="-30" width="385" height="580" filterUnits="userSpaceOnUse" color-interpolation-filters="sRGB">
<feFlood flood-opacity="0" result="BackgroundImageFix"/>
<feGaussianBlur in="BackgroundImageFix" stdDeviation="15"/>
<feComposite in2="SourceAlpha" operator="in" result="effect1_backgroundBlur_4079_372"/>
<feBlend mode="normal" in="SourceGraphic" in2="effect1_backgroundBlur_4079_372" result="shape"/>
</filter>
<linearGradient id="paint0_linear_4079_372" x1="162.5" y1="184.434" x2="162.5" y2="520" gradientUnits="userSpaceOnUse">
<stop stop-color="white" stop-opacity="0.8"/>
<stop offset="1" stop-color="white" stop-opacity="0.1"/>
</linearGradient>
<linearGradient id="paint1_linear_4079_372" x1="162.5" y1="0" x2="162.5" y2="520" gradientUnits="userSpaceOnUse">
<stop stop-color="white" stop-opacity="0.8"/>
<stop offset="1" stop-color="white" stop-opacity="0.8"/>
</linearGradient>
</defs>
</svg>
